<?xml version="1.0" encoding="UTF-8" standalone="no"?>
<!DOCTYPE svg PUBLIC "-//W3C//DTD SVG 1.1//EN"
 "http://www.w3.org/Graphics/SVG/1.1/DTD/svg11.dtd">
<!-- Generated by graphviz version 2.47.0 (20210316.0004)
 -->
<!-- Title: dependencies Pages: 1 -->
<svg width="504pt" height="211pt"
 viewBox="0.00 0.00 504.00 211.00" xmlns="http://www.w3.org/2000/svg" xmlns:xlink="http://www.w3.org/1999/xlink">
<g id="graph0" class="graph" transform="scale(1 1) rotate(0) translate(4 207)">
<title>dependencies</title>
<polygon fill="white" stroke="transparent" points="-4,4 -4,-207 500,-207 500,4 -4,4"/>
<text text-anchor="start" x="227.01" y="-42.4" font-family="sans-serif" font-weight="bold" font-size="14.00">Legend</text>
<polygon fill="#ffffb3" stroke="transparent" points="14,-10 14,-30 34,-30 34,-10 14,-10"/>
<text text-anchor="start" x="37.63" y="-15.4" font-family="sans-serif" font-size="14.00"> &#160;Declarations</text>
<polygon fill="#8dd3c7" stroke="transparent" points="127,-10 127,-30 147,-30 147,-10 127,-10"/>
<text text-anchor="start" x="150.73" y="-15.4" font-family="sans-serif" font-size="14.00"> &#160;Module</text>
<polygon fill="#80b1d3" stroke="transparent" points="213,-10 213,-30 233,-30 233,-10 213,-10"/>
<text text-anchor="start" x="236.78" y="-15.4" font-family="sans-serif" font-size="14.00"> &#160;Bootstrap</text>
<polygon fill="#fdb462" stroke="transparent" points="310,-10 310,-30 330,-30 330,-10 310,-10"/>
<text text-anchor="start" x="333.67" y="-15.4" font-family="sans-serif" font-size="14.00"> &#160;Providers</text>
<polygon fill="#fb8072" stroke="transparent" points="406,-10 406,-30 426,-30 426,-10 406,-10"/>
<text text-anchor="start" x="429.73" y="-15.4" font-family="sans-serif" font-size="14.00"> &#160;Exports</text>
<g id="clust1" class="cluster">
<title>cluster_MensajeModule</title>
<polygon fill="none" stroke="black" stroke-dasharray="1,5" points="80,-70 80,-195 416,-195 416,-70 80,-70"/>
</g>
<g id="clust2" class="cluster">
<title>cluster_MensajeModule_declarations</title>
<polygon fill="none" stroke="black" points="264,-78 264,-130 408,-130 408,-78 264,-78"/>
</g>
<g id="clust4" class="cluster">
<title>cluster_MensajeModule_imports</title>
<polygon fill="none" stroke="black" points="88,-78 88,-130 256,-130 256,-78 88,-78"/>
</g>
<!-- MensajeComponent -->
<g id="node1" class="node">
<title>MensajeComponent</title>
<polygon fill="#ffffb3" stroke="black" points="400.26,-122 271.74,-122 271.74,-86 400.26,-86 400.26,-122"/>
<text text-anchor="middle" x="336" y="-99.8" font-family="Times,serif" font-size="14.00">MensajeComponent</text>
</g>
<!-- MensajeModule -->
<g id="node2" class="node">
<title>MensajeModule</title>
<polygon fill="#8dd3c7" stroke="black" points="307.47,-187 304.47,-191 283.47,-191 280.47,-187 200.53,-187 200.53,-151 307.47,-151 307.47,-187"/>
<text text-anchor="middle" x="254" y="-164.8" font-family="Times,serif" font-size="14.00">MensajeModule</text>
</g>
<!-- MensajeComponent&#45;&gt;MensajeModule -->
<g id="edge1" class="edge">
<title>MensajeComponent&#45;&gt;MensajeModule</title>
<path fill="none" stroke="black" d="M289.55,-122.11C289.55,-122.11 289.55,-140.99 289.55,-140.99"/>
<polygon fill="black" stroke="black" points="286.05,-140.99 289.55,-150.99 293.05,-140.99 286.05,-140.99"/>
</g>
<!-- MensajeRoutingModule -->
<g id="node3" class="node">
<title>MensajeRoutingModule</title>
<polygon fill="#8dd3c7" stroke="black" points="248.09,-122 245.09,-126 224.09,-126 221.09,-122 95.91,-122 95.91,-86 248.09,-86 248.09,-122"/>
<text text-anchor="middle" x="172" y="-99.8" font-family="Times,serif" font-size="14.00">MensajeRoutingModule</text>
</g>
<!-- MensajeRoutingModule&#45;&gt;MensajeModule -->
<g id="edge2" class="edge">
<title>MensajeRoutingModule&#45;&gt;MensajeModule</title>
<path fill="none" stroke="black" d="M224.28,-122.11C224.28,-122.11 224.28,-140.99 224.28,-140.99"/>
<polygon fill="black" stroke="black" points="220.78,-140.99 224.28,-150.99 227.78,-140.99 220.78,-140.99"/>
</g>
</g>
</svg>
