<?xml version="1.0" encoding="UTF-8" standalone="no"?>
<!DOCTYPE svg PUBLIC "-//W3C//DTD SVG 1.1//EN"
 "http://www.w3.org/Graphics/SVG/1.1/DTD/svg11.dtd">
<!-- Generated by graphviz version 2.47.0 (20210316.0004)
 -->
<!-- Title: dependencies Pages: 1 -->
<svg width="504pt" height="211pt"
 viewBox="0.00 0.00 504.00 211.00" xmlns="http://www.w3.org/2000/svg" xmlns:xlink="http://www.w3.org/1999/xlink">
<g id="graph0" class="graph" transform="scale(1 1) rotate(0) translate(4 207)">
<title>dependencies</title>
<polygon fill="white" stroke="transparent" points="-4,4 -4,-207 500,-207 500,4 -4,4"/>
<text text-anchor="start" x="227.01" y="-42.4" font-family="sans-serif" font-weight="bold" font-size="14.00">Legend</text>
<polygon fill="#ffffb3" stroke="transparent" points="14,-10 14,-30 34,-30 34,-10 14,-10"/>
<text text-anchor="start" x="37.63" y="-15.4" font-family="sans-serif" font-size="14.00"> &#160;Declarations</text>
<polygon fill="#8dd3c7" stroke="transparent" points="127,-10 127,-30 147,-30 147,-10 127,-10"/>
<text text-anchor="start" x="150.73" y="-15.4" font-family="sans-serif" font-size="14.00"> &#160;Module</text>
<polygon fill="#80b1d3" stroke="transparent" points="213,-10 213,-30 233,-30 233,-10 213,-10"/>
<text text-anchor="start" x="236.78" y="-15.4" font-family="sans-serif" font-size="14.00"> &#160;Bootstrap</text>
<polygon fill="#fdb462" stroke="transparent" points="310,-10 310,-30 330,-30 330,-10 310,-10"/>
<text text-anchor="start" x="333.67" y="-15.4" font-family="sans-serif" font-size="14.00"> &#160;Providers</text>
<polygon fill="#fb8072" stroke="transparent" points="406,-10 406,-30 426,-30 426,-10 406,-10"/>
<text text-anchor="start" x="429.73" y="-15.4" font-family="sans-serif" font-size="14.00"> &#160;Exports</text>
<g id="clust1" class="cluster">
<title>cluster_AlumnoModule</title>
<polygon fill="none" stroke="black" stroke-dasharray="1,5" points="81,-70 81,-195 415,-195 415,-70 81,-70"/>
</g>
<g id="clust2" class="cluster">
<title>cluster_AlumnoModule_declarations</title>
<polygon fill="none" stroke="black" points="263,-78 263,-130 407,-130 407,-78 263,-78"/>
</g>
<g id="clust4" class="cluster">
<title>cluster_AlumnoModule_imports</title>
<polygon fill="none" stroke="black" points="89,-78 89,-130 255,-130 255,-78 89,-78"/>
</g>
<!-- AlumnoComponent -->
<g id="node1" class="node">
<title>AlumnoComponent</title>
<polygon fill="#ffffb3" stroke="black" points="398.72,-122 271.28,-122 271.28,-86 398.72,-86 398.72,-122"/>
<text text-anchor="middle" x="335" y="-99.8" font-family="Times,serif" font-size="14.00">AlumnoComponent</text>
</g>
<!-- AlumnoModule -->
<g id="node2" class="node">
<title>AlumnoModule</title>
<polygon fill="#8dd3c7" stroke="black" points="305.94,-187 302.94,-191 281.94,-191 278.94,-187 200.06,-187 200.06,-151 305.94,-151 305.94,-187"/>
<text text-anchor="middle" x="253" y="-164.8" font-family="Times,serif" font-size="14.00">AlumnoModule</text>
</g>
<!-- AlumnoComponent&#45;&gt;AlumnoModule -->
<g id="edge1" class="edge">
<title>AlumnoComponent&#45;&gt;AlumnoModule</title>
<path fill="none" stroke="black" d="M288.55,-122.11C288.55,-122.11 288.55,-140.99 288.55,-140.99"/>
<polygon fill="black" stroke="black" points="285.05,-140.99 288.55,-150.99 292.05,-140.99 285.05,-140.99"/>
</g>
<!-- AlumnoRoutingModule -->
<g id="node3" class="node">
<title>AlumnoRoutingModule</title>
<polygon fill="#8dd3c7" stroke="black" points="247.06,-122 244.06,-126 223.06,-126 220.06,-122 96.94,-122 96.94,-86 247.06,-86 247.06,-122"/>
<text text-anchor="middle" x="172" y="-99.8" font-family="Times,serif" font-size="14.00">AlumnoRoutingModule</text>
</g>
<!-- AlumnoRoutingModule&#45;&gt;AlumnoModule -->
<g id="edge2" class="edge">
<title>AlumnoRoutingModule&#45;&gt;AlumnoModule</title>
<path fill="none" stroke="black" d="M223.78,-122.11C223.78,-122.11 223.78,-140.99 223.78,-140.99"/>
<polygon fill="black" stroke="black" points="220.28,-140.99 223.78,-150.99 227.28,-140.99 220.28,-140.99"/>
</g>
</g>
</svg>
