<?xml version="1.0" encoding="UTF-8" standalone="no"?>
<!DOCTYPE svg PUBLIC "-//W3C//DTD SVG 1.1//EN"
 "http://www.w3.org/Graphics/SVG/1.1/DTD/svg11.dtd">
<!-- Generated by graphviz version 2.47.0 (20210316.0004)
 -->
<!-- Title: dependencies Pages: 1 -->
<svg width="504pt" height="211pt"
 viewBox="0.00 0.00 504.00 211.00" xmlns="http://www.w3.org/2000/svg" xmlns:xlink="http://www.w3.org/1999/xlink">
<g id="graph0" class="graph" transform="scale(1 1) rotate(0) translate(4 207)">
<title>dependencies</title>
<polygon fill="white" stroke="transparent" points="-4,4 -4,-207 500,-207 500,4 -4,4"/>
<text text-anchor="start" x="227.01" y="-42.4" font-family="sans-serif" font-weight="bold" font-size="14.00">Legend</text>
<polygon fill="#ffffb3" stroke="transparent" points="14,-10 14,-30 34,-30 34,-10 14,-10"/>
<text text-anchor="start" x="37.63" y="-15.4" font-family="sans-serif" font-size="14.00"> &#160;Declarations</text>
<polygon fill="#8dd3c7" stroke="transparent" points="127,-10 127,-30 147,-30 147,-10 127,-10"/>
<text text-anchor="start" x="150.73" y="-15.4" font-family="sans-serif" font-size="14.00"> &#160;Module</text>
<polygon fill="#80b1d3" stroke="transparent" points="213,-10 213,-30 233,-30 233,-10 213,-10"/>
<text text-anchor="start" x="236.78" y="-15.4" font-family="sans-serif" font-size="14.00"> &#160;Bootstrap</text>
<polygon fill="#fdb462" stroke="transparent" points="310,-10 310,-30 330,-30 330,-10 310,-10"/>
<text text-anchor="start" x="333.67" y="-15.4" font-family="sans-serif" font-size="14.00"> &#160;Providers</text>
<polygon fill="#fb8072" stroke="transparent" points="406,-10 406,-30 426,-30 426,-10 406,-10"/>
<text text-anchor="start" x="429.73" y="-15.4" font-family="sans-serif" font-size="14.00"> &#160;Exports</text>
<g id="clust1" class="cluster">
<title>cluster_CursoModule</title>
<polygon fill="none" stroke="black" stroke-dasharray="1,5" points="49,-70 49,-195 447,-195 447,-70 49,-70"/>
</g>
<g id="clust2" class="cluster">
<title>cluster_CursoModule_declarations</title>
<polygon fill="none" stroke="black" points="219,-78 219,-130 439,-130 439,-78 219,-78"/>
</g>
<g id="clust5" class="cluster">
<title>cluster_CursoModule_imports</title>
<polygon fill="none" stroke="black" points="57,-78 57,-130 211,-130 211,-78 57,-78"/>
</g>
<!-- CursoComponent -->
<g id="node1" class="node">
<title>CursoComponent</title>
<polygon fill="#ffffb3" stroke="black" points="431.27,-122 316.73,-122 316.73,-86 431.27,-86 431.27,-122"/>
<text text-anchor="middle" x="374" y="-99.8" font-family="Times,serif" font-size="14.00">CursoComponent</text>
</g>
<!-- CursoModule -->
<g id="node3" class="node">
<title>CursoModule</title>
<polygon fill="#8dd3c7" stroke="black" points="309.49,-187 306.49,-191 285.49,-191 282.49,-187 216.51,-187 216.51,-151 309.49,-151 309.49,-187"/>
<text text-anchor="middle" x="263" y="-164.8" font-family="Times,serif" font-size="14.00">CursoModule</text>
</g>
<!-- CursoComponent&#45;&gt;CursoModule -->
<g id="edge1" class="edge">
<title>CursoComponent&#45;&gt;CursoModule</title>
<path fill="none" stroke="black" d="M316.56,-104C309.13,-104 304.05,-104 304.05,-104 304.05,-104 304.05,-140.89 304.05,-140.89"/>
<polygon fill="black" stroke="black" points="300.55,-140.89 304.05,-150.89 307.55,-140.89 300.55,-140.89"/>
</g>
<!-- FilterPipe -->
<g id="node2" class="node">
<title>FilterPipe</title>
<polygon fill="#ffffb3" stroke="black" points="298.72,-122 227.28,-122 227.28,-86 298.72,-86 298.72,-122"/>
<text text-anchor="middle" x="263" y="-99.8" font-family="Times,serif" font-size="14.00">FilterPipe</text>
</g>
<!-- FilterPipe&#45;&gt;CursoModule -->
<g id="edge2" class="edge">
<title>FilterPipe&#45;&gt;CursoModule</title>
<path fill="none" stroke="black" d="M263,-122.11C263,-122.11 263,-140.99 263,-140.99"/>
<polygon fill="black" stroke="black" points="259.5,-140.99 263,-150.99 266.5,-140.99 259.5,-140.99"/>
</g>
<!-- CursoRoutingModule -->
<g id="node4" class="node">
<title>CursoRoutingModule</title>
<polygon fill="#8dd3c7" stroke="black" points="203.11,-122 200.11,-126 179.11,-126 176.11,-122 64.89,-122 64.89,-86 203.11,-86 203.11,-122"/>
<text text-anchor="middle" x="134" y="-99.8" font-family="Times,serif" font-size="14.00">CursoRoutingModule</text>
</g>
<!-- CursoRoutingModule&#45;&gt;CursoModule -->
<g id="edge3" class="edge">
<title>CursoRoutingModule&#45;&gt;CursoModule</title>
<path fill="none" stroke="black" d="M203.3,-104C214.2,-104 221.95,-104 221.95,-104 221.95,-104 221.95,-140.89 221.95,-140.89"/>
<polygon fill="black" stroke="black" points="218.45,-140.89 221.95,-150.89 225.45,-140.89 218.45,-140.89"/>
</g>
</g>
</svg>
