<?xml version="1.0" encoding="UTF-8" standalone="no"?>
<!DOCTYPE svg PUBLIC "-//W3C//DTD SVG 1.1//EN"
 "http://www.w3.org/Graphics/SVG/1.1/DTD/svg11.dtd">
<!-- Generated by graphviz version 2.47.0 (20210316.0004)
 -->
<!-- Title: dependencies Pages: 1 -->
<svg width="504pt" height="211pt"
 viewBox="0.00 0.00 504.00 211.00" xmlns="http://www.w3.org/2000/svg" xmlns:xlink="http://www.w3.org/1999/xlink">
<g id="graph0" class="graph" transform="scale(1 1) rotate(0) translate(4 207)">
<title>dependencies</title>
<polygon fill="white" stroke="transparent" points="-4,4 -4,-207 500,-207 500,4 -4,4"/>
<text text-anchor="start" x="227.01" y="-42.4" font-family="sans-serif" font-weight="bold" font-size="14.00">Legend</text>
<polygon fill="#ffffb3" stroke="transparent" points="14,-10 14,-30 34,-30 34,-10 14,-10"/>
<text text-anchor="start" x="37.63" y="-15.4" font-family="sans-serif" font-size="14.00"> &#160;Declarations</text>
<polygon fill="#8dd3c7" stroke="transparent" points="127,-10 127,-30 147,-30 147,-10 127,-10"/>
<text text-anchor="start" x="150.73" y="-15.4" font-family="sans-serif" font-size="14.00"> &#160;Module</text>
<polygon fill="#80b1d3" stroke="transparent" points="213,-10 213,-30 233,-30 233,-10 213,-10"/>
<text text-anchor="start" x="236.78" y="-15.4" font-family="sans-serif" font-size="14.00"> &#160;Bootstrap</text>
<polygon fill="#fdb462" stroke="transparent" points="310,-10 310,-30 330,-30 330,-10 310,-10"/>
<text text-anchor="start" x="333.67" y="-15.4" font-family="sans-serif" font-size="14.00"> &#160;Providers</text>
<polygon fill="#fb8072" stroke="transparent" points="406,-10 406,-30 426,-30 426,-10 406,-10"/>
<text text-anchor="start" x="429.73" y="-15.4" font-family="sans-serif" font-size="14.00"> &#160;Exports</text>
<g id="clust1" class="cluster">
<title>cluster_ProfesorModule</title>
<polygon fill="none" stroke="black" stroke-dasharray="1,5" points="80,-70 80,-195 416,-195 416,-70 80,-70"/>
</g>
<g id="clust4" class="cluster">
<title>cluster_ProfesorModule_imports</title>
<polygon fill="none" stroke="black" points="240,-78 240,-130 408,-130 408,-78 240,-78"/>
</g>
<g id="clust2" class="cluster">
<title>cluster_ProfesorModule_declarations</title>
<polygon fill="none" stroke="black" points="88,-78 88,-130 232,-130 232,-78 88,-78"/>
</g>
<!-- ProfesorComponent -->
<g id="node1" class="node">
<title>ProfesorComponent</title>
<polygon fill="#ffffb3" stroke="black" points="224.26,-122 95.74,-122 95.74,-86 224.26,-86 224.26,-122"/>
<text text-anchor="middle" x="160" y="-99.8" font-family="Times,serif" font-size="14.00">ProfesorComponent</text>
</g>
<!-- ProfesorModule -->
<g id="node2" class="node">
<title>ProfesorModule</title>
<polygon fill="#8dd3c7" stroke="black" points="295.47,-187 292.47,-191 271.47,-191 268.47,-187 188.53,-187 188.53,-151 295.47,-151 295.47,-187"/>
<text text-anchor="middle" x="242" y="-164.8" font-family="Times,serif" font-size="14.00">ProfesorModule</text>
</g>
<!-- ProfesorComponent&#45;&gt;ProfesorModule -->
<g id="edge1" class="edge">
<title>ProfesorComponent&#45;&gt;ProfesorModule</title>
<path fill="none" stroke="black" d="M206.45,-122.11C206.45,-122.11 206.45,-140.99 206.45,-140.99"/>
<polygon fill="black" stroke="black" points="202.95,-140.99 206.45,-150.99 209.95,-140.99 202.95,-140.99"/>
</g>
<!-- ProfesorRoutingModule -->
<g id="node3" class="node">
<title>ProfesorRoutingModule</title>
<polygon fill="#8dd3c7" stroke="black" points="400.09,-122 397.09,-126 376.09,-126 373.09,-122 247.91,-122 247.91,-86 400.09,-86 400.09,-122"/>
<text text-anchor="middle" x="324" y="-99.8" font-family="Times,serif" font-size="14.00">ProfesorRoutingModule</text>
</g>
<!-- ProfesorRoutingModule&#45;&gt;ProfesorModule -->
<g id="edge2" class="edge">
<title>ProfesorRoutingModule&#45;&gt;ProfesorModule</title>
<path fill="none" stroke="black" d="M271.72,-122.11C271.72,-122.11 271.72,-140.99 271.72,-140.99"/>
<polygon fill="black" stroke="black" points="268.22,-140.99 271.72,-150.99 275.22,-140.99 268.22,-140.99"/>
</g>
</g>
</svg>
